<?xml version="1.0" standalone="no"?>
<!DOCTYPE svg PUBLIC "-//W3C//DTD SVG 20010904//EN"
 "http://www.w3.org/TR/2001/REC-SVG-20010904/DTD/svg10.dtd">
<svg version="1.0" xmlns="http://www.w3.org/2000/svg"
 width="256.000000pt" height="256.000000pt" viewBox="0 0 256.000000 256.000000"
 preserveAspectRatio="xMidYMid meet">

<g transform="translate(0.000000,256.000000) scale(0.100000,-0.100000)"
fill="#000000" stroke="none">
<path d="M960 2520 l0 -40 -80 0 -80 0 0 -40 0 -40 -80 0 -80 0 0 -40 0 -40
-80 0 -80 0 0 -40 0 -40 -40 0 -40 0 0 -40 0 -40 -40 0 -40 0 0 -40 0 -40 -40
0 -40 0 0 -80 0 -80 -40 0 -40 0 0 -80 0 -80 -40 0 -40 0 0 -80 0 -80 -40 0
-40 0 0 -320 0 -320 40 0 40 0 0 -120 0 -120 40 0 40 0 0 -40 0 -40 40 0 40 0
0 -80 0 -80 40 0 40 0 0 -40 0 -40 40 0 40 0 0 -40 0 -40 40 0 40 0 0 -40 0
-40 80 0 80 0 0 -40 0 -40 40 0 40 0 0 -40 0 -40 120 0 120 0 0 -40 0 -40 320
0 320 0 0 40 0 40 120 0 120 0 0 40 0 40 40 0 40 0 0 40 0 40 80 0 80 0 0 40
0 40 40 0 40 0 0 40 0 40 40 0 40 0 0 40 0 40 40 0 40 0 0 80 0 80 40 0 40 0
0 40 0 40 40 0 40 0 0 120 0 120 40 0 40 0 0 320 0 320 -40 0 -40 0 0 120 0
120 -40 0 -40 0 0 40 0 40 -40 0 -40 0 0 80 0 80 -40 0 -40 0 0 40 0 40 -40 0
-40 0 0 40 0 40 -40 0 -40 0 0 40 0 40 -80 0 -80 0 0 40 0 40 -40 0 -40 0 0
40 0 40 -120 0 -120 0 0 40 0 40 -320 0 -320 0 0 -40z m400 -960 l0 -40 80 0
80 0 0 -80 0 -80 40 0 40 0 0 -120 0 -120 -40 0 -40 0 0 -40 0 -40 -40 0 -40
0 0 -40 0 -40 -120 0 -120 0 0 40 0 40 -80 0 -80 0 0 80 0 80 -40 0 -40 0 0
80 0 80 40 0 40 0 0 80 0 80 80 0 80 0 0 40 0 40 80 0 80 0 0 -40z m-560 -400
l0 -40 40 0 40 0 0 -80 0 -80 40 0 40 0 0 -40 0 -40 80 0 80 0 0 -40 0 -40
160 0 160 0 0 40 0 40 80 0 80 0 0 40 0 40 40 0 40 0 0 80 0 80 40 0 40 0 0
40 0 40 280 0 280 0 0 -160 0 -160 -40 0 -40 0 0 -80 0 -80 -40 0 -40 0 0 -40
0 -40 -40 0 -40 0 0 -80 0 -80 -80 0 -80 0 0 -40 0 -40 -40 0 -40 0 0 -40 0
-40 -80 0 -80 0 0 -40 0 -40 -120 0 -120 0 0 -40 0 -40 -160 0 -160 0 0 40 0
40 -120 0 -120 0 0 40 0 40 -80 0 -80 0 0 40 0 40 -80 0 -80 0 0 40 0 40 -40
0 -40 0 0 40 0 40 -40 0 -40 0 0 80 0 80 -40 0 -40 0 0 80 0 80 -40 0 -40 0 0
160 0 160 280 0 280 0 0 -40z"/>
<path d="M1200 1400 l0 -40 -40 0 -40 0 0 -80 0 -80 40 0 40 0 0 -40 0 -40
120 0 120 0 0 120 0 120 -40 0 -40 0 0 40 0 40 -80 0 -80 0 0 -40z"/>
</g>
</svg>
